<?xml version="1.0" standalone="no"?>
<!DOCTYPE svg PUBLIC "-//W3C//DTD SVG 20010904//EN"
 "http://www.w3.org/TR/2001/REC-SVG-20010904/DTD/svg10.dtd">
<svg version="1.0" xmlns="http://www.w3.org/2000/svg"
 width="1000.000000pt" height="653.000000pt" viewBox="0 0 1000.000000 653.000000"
 preserveAspectRatio="xMidYMid meet">
<metadata>
Created by potrace 1.15, written by Peter Selinger 2001-2017
</metadata>
<g transform="translate(0.000000,653.000000) scale(0.100000,-0.100000)"
fill="#000000" stroke="none">
<path d="M6123 6030 c-5 -19 -10 -20 -50 -14 -39 6 -45 4 -50 -14 -4 -17 -11
-20 -40 -15 -25 4 -41 0 -62 -14 -23 -18 -29 -19 -46 -7 -22 16 -81 19 -90 4
-9 -15 -43 -12 -71 6 -19 13 -30 14 -48 6 -13 -6 -33 -8 -45 -5 -35 9 -70 -5
-77 -32 -4 -15 -13 -25 -23 -25 -10 0 -27 -10 -39 -23 -28 -30 -31 -111 -6
-125 11 -6 15 -17 12 -30 -9 -34 6 -48 36 -33 14 8 37 11 55 8 17 -4 32 -3 35
2 3 4 19 8 36 9 17 0 38 6 46 13 11 9 21 9 40 0 42 -19 81 -13 107 15 21 22
25 23 37 10 22 -27 78 -20 109 13 21 22 33 28 54 24 53 -10 75 4 106 67 17 34
27 68 24 77 -3 9 -7 34 -7 57 -1 31 -5 41 -19 44 -12 3 -20 -4 -24 -18z"/>
<path d="M5340 5590 l0 -90 190 0 190 0 0 84 c0 67 -3 85 -16 90 -9 3 -94 6
-190 6 l-174 0 0 -90z"/>
<path d="M4427 5072 l-567 -567 85 -85 85 -85 78 78 c42 42 81 77 85 77 4 0 7
-45 7 -99 0 -57 4 -103 10 -106 19 -12 48 -80 65 -155 19 -78 56 -163 77 -176
8 -5 9 -2 4 12 -40 97 -10 164 74 164 47 0 83 -23 142 -91 l53 -61 7 43 c3 24
7 80 7 125 1 75 -1 82 -25 105 -46 41 -54 77 -54 223 0 79 4 137 10 141 12 7
11 13 19 -134 4 -78 10 -116 19 -119 9 -3 12 17 13 75 1 95 13 184 22 163 4
-8 8 -64 9 -125 3 -95 5 -110 21 -113 15 -3 17 5 18 65 2 94 14 191 22 173 4
-8 8 -64 9 -124 2 -71 7 -111 14 -113 8 -3 14 36 19 127 4 71 11 130 16 130 5
0 9 -65 9 -145 0 -153 -6 -180 -49 -219 -24 -22 -25 -45 -14 -244 l6 -122 46
-29 c46 -30 115 -97 143 -139 15 -21 16 -19 21 55 4 43 9 188 13 323 l7 245
-40 40 c-41 41 -63 103 -63 179 0 59 30 138 66 174 31 31 39 34 75 29 52 -7
84 -37 105 -99 33 -101 13 -231 -45 -293 l-28 -30 8 -315 c5 -173 10 -318 12
-323 1 -4 18 14 37 40 19 26 55 62 80 81 25 18 69 51 98 73 l52 40 0 75 c0 41
-3 74 -7 74 -5 0 -18 15 -30 33 -19 28 -23 47 -23 113 0 102 25 279 46 326 32
72 107 73 120 1 10 -55 -3 -434 -15 -446 -6 -6 -11 -27 -11 -46 l0 -35 33 31
c52 48 79 63 118 63 74 0 112 -61 86 -138 -8 -23 -11 -39 -6 -36 19 11 57 101
74 174 22 92 44 137 85 173 30 27 31 31 30 100 -1 40 -1 82 -1 93 1 17 17 5
80 -59 l78 -80 77 78 77 79 -225 225 -226 226 0 241 0 242 -22 3 c-13 2 -78 3
-145 1 l-122 -3 3 -94 c2 -52 2 -96 0 -98 -2 -2 -90 84 -196 190 l-193 193
-568 -568z"/>
<path d="M4120 4270 c0 -5 5 -10 11 -10 8 0 8 -4 -1 -15 -9 -11 -9 -30 0 -85
6 -38 16 -70 22 -70 6 0 8 -12 5 -27 -3 -17 4 -52 17 -88 20 -53 24 -57 34
-40 14 25 16 11 2 -16 -20 -36 50 -118 93 -110 5 1 5 -4 2 -10 -4 -6 11 -29
35 -51 34 -33 44 -38 52 -27 8 12 9 11 5 -1 -2 -8 7 -27 21 -42 17 -18 21 -28
12 -28 -8 0 6 -15 30 -32 25 -18 51 -32 58 -30 9 2 11 -1 7 -8 -6 -9 -2 -9 14
-1 12 7 21 8 21 2 0 -5 -5 -11 -11 -13 -7 -2 -4 -10 7 -18 11 -9 15 -10 10 -2
-14 23 10 12 48 -23 21 -19 35 -39 31 -44 -3 -6 4 -21 15 -33 12 -13 30 -39
41 -58 19 -35 19 -35 12 -5 -3 17 -10 32 -15 33 -11 5 -10 22 2 22 9 0 30 -64
33 -100 0 -10 6 -16 13 -13 6 2 14 -9 18 -28 10 -50 6 -57 -10 -19 -9 22 -12
26 -9 10 2 -14 5 -53 5 -87 0 -62 0 -63 28 -62 16 1 20 3 10 6 -11 3 -18 13
-17 26 1 17 2 18 6 5 9 -35 18 -17 14 30 -2 26 -2 45 1 42 2 -3 12 -16 23 -29
15 -19 16 -23 4 -19 -12 5 -14 0 -11 -23 3 -23 7 -27 21 -20 38 22 59 71 29
71 -6 0 -7 -8 -4 -17 6 -15 4 -15 -14 2 -22 20 -26 35 -9 35 5 0 7 -4 4 -10
-7 -12 8 -14 19 -2 4 4 13 7 19 7 6 0 11 18 11 40 1 26 5 39 14 38 8 -2 13 13
14 45 l1 47 4 -43 c3 -29 -1 -52 -12 -69 -9 -13 -14 -31 -11 -38 3 -8 1 -17
-4 -20 -6 -4 -10 -11 -10 -18 0 -6 7 -1 16 11 8 12 12 27 9 32 -3 6 -1 10 4
10 6 0 11 9 11 20 0 11 4 20 9 20 5 0 7 10 3 22 -3 14 -1 19 6 14 15 -9 26 93
16 151 -9 47 -9 46 -15 -42 l-6 -90 1 102 c1 55 -2 99 -6 96 -5 -2 -8 -17 -8
-34 0 -16 -4 -29 -9 -29 -8 0 -11 34 -12 120 0 24 -12 52 -36 88 -20 28 -39
52 -43 52 -3 0 -15 8 -26 18 -48 44 -79 60 -91 47 -6 -7 -9 -16 -5 -20 4 -4
-5 -1 -20 6 -16 7 -28 15 -29 18 -6 41 -4 49 8 44 16 -6 17 -23 2 -23 -6 0 -4
-7 5 -15 17 -17 30 -20 21 -5 -3 6 0 10 7 10 7 0 -2 14 -20 31 -18 16 -38 27
-43 23 -18 -11 -59 -12 -66 -1 -3 6 -1 7 5 3 6 -3 17 0 25 8 8 8 18 12 23 8 5
-4 2 1 -5 11 -14 18 -26 24 -16 7 3 -5 1 -10 -4 -10 -6 0 -14 -1 -18 -2 -3 -2
-7 7 -8 19 -1 12 3 19 8 16 5 -3 4 4 -3 16 -11 21 -13 22 -37 6 -26 -18 -54
-14 -52 7 0 10 2 10 6 1 6 -17 28 -16 43 2 9 11 8 19 -7 39 -38 51 -107 72
-133 40 -12 -13 -10 -14 12 -3 19 8 33 8 55 0 28 -11 28 -11 -6 -5 -25 5 -32
3 -26 -6 5 -8 3 -11 -6 -8 -24 9 -48 -10 -42 -32 3 -11 9 -18 13 -15 5 3 11 1
14 -4 3 -5 14 -7 24 -4 12 3 18 -2 19 -17 1 -13 -2 -18 -10 -14 -7 4 -8 3 -4
-2 5 -5 16 -9 24 -9 9 0 18 -6 21 -14 3 -8 0 -11 -7 -7 -6 4 -11 3 -11 -3 0
-6 12 -17 26 -24 15 -8 22 -17 17 -20 -6 -4 -34 18 -62 48 -28 29 -51 50 -51
45 0 -13 98 -111 139 -139 30 -22 33 -22 29 -5 -2 10 -9 19 -15 19 -20 0 -37
22 -23 30 18 11 60 -35 59 -64 -2 -34 26 -97 46 -104 8 -4 15 -14 14 -24 0
-11 -3 -13 -6 -5 -7 17 -23 15 -23 -3 0 -7 8 -19 18 -24 9 -6 12 -11 6 -11 -5
0 -19 7 -30 15 -25 19 -38 19 -30 0 3 -9 -1 -18 -9 -21 -7 -3 -12 -11 -9 -18
3 -7 -2 -19 -11 -26 -10 -8 -15 -9 -15 -1 0 6 5 11 10 11 6 0 10 5 10 10 0 6
-11 3 -25 -6 -24 -16 -26 -15 -53 11 -23 24 -24 26 -4 16 16 -9 22 -9 22 0 0
7 9 9 24 5 20 -5 27 -1 38 24 8 18 21 30 33 31 14 0 16 2 5 6 -8 3 -18 11 -22
17 -5 8 -8 7 -8 -1 0 -7 -7 -10 -16 -6 -8 3 -13 11 -10 18 4 12 -44 55 -63 55
-24 0 -173 163 -196 213 -14 29 -24 43 -24 32 -1 -13 -4 -16 -12 -8 -8 8 -7
16 1 30 10 15 9 29 -4 68 -8 28 -14 40 -12 27 3 -13 0 -19 -6 -16 -5 4 -7 23
-4 43 l5 36 -14 -40 -13 -40 1 46 c1 28 6 45 12 41 11 -6 -25 39 -40 50 -15
11 -45 10 -45 -2z"/>
<path d="M5784 4246 c-3 -8 -3 -20 1 -25 4 -7 0 -8 -11 -4 -11 4 -15 3 -11 -4
4 -6 2 -13 -4 -15 -7 -2 -12 -18 -13 -36 0 -18 -4 -32 -7 -32 -6 0 -23 -75
-22 -95 0 -5 4 -19 9 -30 7 -18 6 -19 -11 -5 -17 14 -18 13 -12 -2 3 -9 -1
-31 -9 -48 -12 -24 -19 -28 -29 -20 -11 9 -17 6 -26 -12 -7 -13 -13 -30 -14
-38 0 -8 -7 -15 -15 -15 -25 -1 -53 -22 -46 -34 10 -16 26 -14 20 3 -3 8 -1
16 4 20 5 3 8 -5 7 -17 -1 -15 -9 -22 -23 -23 -12 -1 -19 3 -16 7 3 5 1 9 -4
9 -6 0 -13 -7 -16 -16 -3 -8 -10 -13 -15 -10 -5 3 -14 -1 -20 -8 -9 -11 -9
-16 0 -22 8 -5 9 -3 4 6 -5 8 -4 11 3 7 15 -10 8 -39 -11 -51 -12 -8 -20 -7
-29 2 -11 11 -9 12 7 6 17 -7 18 -5 8 8 -7 8 -12 17 -10 19 1 2 -5 -3 -14 -11
-9 -8 -14 -19 -11 -24 3 -5 0 -6 -7 -2 -6 4 -22 -1 -35 -11 l-23 -18 25 -19
c24 -19 25 -19 43 5 14 19 20 22 30 12 11 -11 9 -13 -5 -13 -12 0 -16 -6 -14
-22 2 -16 10 -23 25 -23 11 0 25 -4 29 -8 5 -4 1 -5 -7 -2 -10 4 -16 0 -16
-10 0 -20 10 -19 30 3 13 15 14 21 4 31 -10 11 -8 11 12 1 21 -11 27 -8 64 27
59 55 67 66 61 86 -3 9 -1 17 5 17 6 0 11 6 11 14 0 8 7 22 17 31 9 9 12 20 7
23 -5 4 -14 14 -21 22 -10 13 -9 16 7 16 10 0 18 -3 18 -6 -2 -24 3 -33 13
-23 6 6 17 9 24 7 16 -6 55 100 44 118 -5 7 -9 19 -9 27 0 11 4 9 15 -5 17
-23 20 -11 4 18 -10 18 -9 20 5 15 11 -4 15 -3 11 4 -4 5 -1 17 6 25 7 8 13
39 13 69 1 29 4 51 9 48 4 -2 7 3 7 12 0 11 -6 15 -19 10 -10 -3 -24 1 -31 10
-15 18 1 20 18 3 9 -9 12 -9 12 0 0 6 -9 16 -20 22 -16 9 -22 8 -26 -4z"/>
<path d="M5443 4023 c-35 -36 -61 -68 -59 -71 6 -5 43 21 44 31 3 37 8 19 8
-26 0 -46 -4 -58 -18 -63 -21 -6 -24 -20 -6 -26 8 -3 8 -10 -4 -26 -16 -23
-30 -20 -21 4 3 8 -1 14 -10 14 -8 0 -18 -7 -21 -16 -8 -21 -8 -26 3 -20 5 3
11 -4 15 -17 9 -33 6 -45 -5 -19 -6 17 -14 22 -28 17 -44 -14 -3 60 45 79 13
6 15 10 6 13 -8 3 -31 -9 -52 -26 -50 -40 -70 -40 -28 -1 17 17 38 30 47 30
14 0 14 2 1 11 -12 8 -11 9 6 4 13 -3 26 0 33 9 27 32 -37 9 -83 -30 -37 -31
-45 -44 -41 -61 3 -13 1 -23 -5 -23 -6 0 -8 5 -5 10 3 6 1 10 -5 10 -6 0 -8 5
-4 11 3 6 -5 3 -20 -6 -32 -21 -34 -30 -3 -15 22 11 22 11 -2 -9 -13 -12 -31
-21 -40 -21 -9 0 -31 -14 -48 -31 -32 -29 -43 -47 -23 -34 17 11 11 -22 -7
-36 -15 -12 -16 -12 -10 5 6 15 5 17 -7 7 -8 -7 -12 -22 -9 -34 3 -15 2 -18
-4 -10 -6 9 -15 -2 -30 -36 -20 -47 -20 -49 -2 -38 11 7 19 20 19 31 0 25 5
18 14 -16 5 -21 3 -28 -8 -28 -8 0 -18 -10 -21 -21 -6 -17 -9 -18 -16 -8 -16
26 -24 -4 -24 -89 0 -50 6 -95 13 -107 11 -18 11 -17 8 10 -2 17 -1 24 1 17 3
-8 12 -10 24 -7 28 9 25 -28 -3 -48 -16 -11 -20 -19 -11 -24 6 -5 15 -21 18
-36 8 -28 22 -43 32 -33 4 4 1 12 -5 18 -7 7 -12 19 -12 28 0 13 1 13 10 0 9
-13 11 -13 20 0 8 12 9 9 6 -10 -3 -14 -8 -35 -12 -47 -4 -14 -2 -23 5 -23 6
0 11 9 11 21 0 13 4 18 13 13 6 -4 9 -4 6 0 -4 4 -1 33 7 64 7 31 13 70 14 87
0 29 0 29 15 8 15 -22 15 -27 -12 -180 -3 -18 -10 -33 -16 -33 -6 0 -2 -7 9
-15 23 -17 64 -20 64 -4 0 6 -6 9 -12 6 -7 -2 -22 0 -33 4 l-20 9 20 -1 c42
-2 45 0 45 49 0 86 40 176 109 250 24 25 17 30 -9 7 -16 -14 -18 -14 -24 0 -3
9 -2 13 4 10 12 -8 50 16 50 32 0 7 4 13 10 13 5 0 7 -8 4 -17 -4 -11 -3 -14
3 -7 4 6 34 30 65 53 32 24 56 48 55 54 -2 14 -18 27 -32 27 -5 0 -3 -5 5 -10
8 -5 10 -10 4 -10 -15 0 -36 25 -28 33 3 3 -5 3 -18 0 -17 -3 -19 -2 -9 5 11
8 9 12 -9 22 -18 10 -24 9 -31 -1 -5 -9 -7 2 -4 26 4 32 3 35 -4 15 -8 -22 -9
-19 -10 19 -1 41 0 43 14 25 13 -18 14 -17 21 14 3 17 13 32 20 32 8 0 14 4
14 9 0 5 18 22 40 39 22 16 37 31 34 35 -3 3 3 8 14 11 26 9 65 60 82 108 12
33 12 39 -5 58 -22 24 -44 27 -24 4 12 -15 11 -16 -9 -10 -12 4 -22 3 -22 -2
0 -5 -12 -9 -26 -9 -17 0 -22 2 -13 8 7 4 17 5 23 2 5 -3 6 -1 2 5 -3 6 2 13
11 15 16 4 16 5 -1 6 -12 1 -44 -25 -83 -66z"/>
<path d="M3570 3356 c0 -3 22 -37 50 -77 67 -97 109 -209 117 -310 l6 -79
-1642 0 -1641 0 0 -35 0 -35 245 0 245 0 0 -54 0 -53 -62 14 c-194 46 -381
-44 -350 -168 15 -61 52 -107 106 -134 62 -31 70 -31 187 0 148 39 206 31 197
-26 -4 -30 -43 -57 -108 -74 -93 -25 -148 -20 -223 20 -36 19 -77 35 -90 35
-34 0 -59 -23 -59 -53 -1 -52 50 -85 157 -101 68 -11 70 -12 101 -59 57 -88
70 -97 135 -97 32 0 60 4 64 9 3 5 -7 30 -22 55 -20 32 -35 45 -51 46 -28 0
-82 27 -82 40 0 6 9 10 20 10 29 0 110 43 141 74 38 37 53 79 44 122 -19 104
-157 143 -315 89 -89 -30 -121 -31 -146 -4 -17 18 -17 23 -4 46 44 77 241 101
393 47 22 -8 41 -14 43 -14 2 0 4 52 4 115 l0 115 430 0 430 0 0 -205 0 -204
-30 -35 c-40 -45 -105 -70 -166 -63 -63 7 -68 15 -45 68 32 70 29 81 -34 112
-31 15 -57 27 -59 27 -2 0 -6 -18 -10 -41 -13 -79 -76 -164 -139 -188 -49 -19
-103 -13 -133 12 -23 20 -28 34 -32 84 -5 76 10 107 96 196 l67 67 -48 47 -47
47 -50 -49 c-71 -70 -104 -140 -104 -224 0 -77 16 -113 75 -171 81 -78 205
-93 303 -35 l47 27 59 -31 c101 -54 210 -36 299 50 57 55 61 76 61 304 l0 206
78 -3 77 -3 3 -76 c2 -59 -1 -79 -13 -89 -8 -7 -15 -23 -15 -36 l0 -23 73 26
c100 36 219 42 265 14 25 -16 32 -28 32 -52 0 -26 -3 -30 -17 -24 -49 20 -93
27 -149 23 -139 -9 -273 -118 -261 -212 16 -119 213 -180 362 -112 37 17 61
23 63 16 2 -6 26 -22 53 -35 l49 -25 0 198 c0 185 -1 201 -22 242 -13 25 -37
53 -56 63 -45 26 -142 32 -219 14 l-63 -14 0 54 0 53 253 -2 252 -3 3 -69 c2
-49 -1 -75 -13 -92 -8 -13 -15 -32 -15 -43 0 -19 4 -18 83 10 154 54 287 34
287 -43 0 -25 -3 -29 -17 -23 -94 38 -195 32 -284 -17 -86 -47 -124 -95 -124
-158 0 -40 5 -54 30 -81 73 -77 217 -97 331 -45 36 17 60 23 62 16 2 -6 26
-22 53 -35 l49 -25 0 195 c0 207 -6 244 -52 292 -39 41 -144 52 -275 27 l-33
-6 0 51 0 51 453 -2 452 -3 3 -120 3 -120 -73 71 c-81 80 -125 100 -192 90
-87 -14 -165 -83 -201 -178 -15 -42 -16 -54 -5 -94 7 -26 32 -72 56 -103 92
-120 213 -163 308 -107 24 14 58 43 75 63 l31 38 0 -46 c0 -46 0 -46 47 -65
27 -11 51 -20 55 -22 4 -2 9 131 10 295 l3 298 136 0 137 0 12 34 c9 25 14 30
21 20 7 -11 9 -11 9 -1 0 22 43 32 57 13 32 -42 -8 -86 -52 -57 -31 20 -35 20
-35 -3 0 -11 -6 -21 -12 -23 -10 -4 -14 -47 -16 -162 -3 -117 0 -156 8 -151 7
4 10 23 7 44 -2 20 -2 27 0 17 4 -14 7 -16 13 -7 4 7 6 -11 4 -41 -3 -33 -1
-46 4 -34 5 12 9 -20 10 -85 4 -196 3 -188 35 -195 16 -3 34 -1 40 5 17 17 29
13 22 -9 -4 -11 -2 -20 4 -20 6 0 11 20 11 46 0 25 5 89 12 141 7 59 8 98 2
100 -5 2 -7 56 -5 128 3 137 -3 200 -21 189 -6 -4 -8 -3 -5 4 4 5 4 17 1 26
-5 12 -10 13 -26 5 -10 -6 -27 -8 -36 -6 -13 4 -13 5 4 6 11 0 25 6 32 13 18
18 319 11 346 -8 19 -13 19 -14 2 -14 -13 0 -16 -4 -9 -12 11 -14 10 -325 -2
-758 -7 -244 -5 -297 24 -667 17 -221 31 -405 31 -409 0 -3 7 -1 15 6 44 36
118 320 149 570 22 174 38 386 34 445 l-3 50 -50 5 c-47 5 -50 7 -53 35 -2 16
-12 41 -23 56 -18 25 -19 48 -19 368 l0 341 173 0 173 0 12 -45 c18 -67 16
-73 -28 -85 -75 -20 -71 35 -68 -849 l3 -793 24 -20 c14 -10 38 -22 54 -25 26
-5 28 -9 23 -37 -26 -125 -20 -161 30 -182 68 -28 144 10 144 71 0 18 -7 54
-15 81 -19 64 -20 61 18 68 19 3 43 15 55 27 l22 20 0 794 c0 774 -1 796 -19
814 -11 11 -36 23 -55 27 -41 7 -42 9 -19 81 l17 53 168 -2 169 -3 -1 -323 c0
-220 3 -321 10 -317 6 4 9 43 6 103 -2 61 -1 80 4 52 6 -42 7 -39 9 30 5 147
17 183 17 53 0 -68 -3 -123 -7 -123 -4 0 -9 -21 -11 -46 -4 -56 13 -76 43 -48
16 14 19 15 14 2 -4 -9 -1 -19 5 -23 7 -5 10 85 10 317 l-1 323 205 3 c160 2
206 5 206 15 0 7 7 22 16 33 15 18 15 18 5 -3 -14 -28 -14 -46 0 -37 7 4 10 1
7 -7 -3 -8 -10 -13 -16 -12 -23 5 -31 -35 -25 -116 6 -87 20 -107 25 -38 2 23
3 -18 2 -90 -1 -73 2 -136 7 -139 13 -8 11 -43 -3 -58 -10 -10 -13 7 -13 83 1
83 -9 156 -16 126 -1 -5 -6 19 -9 55 -5 43 -6 25 -3 -50 2 -63 11 -171 19
-240 17 -155 18 -371 0 -470 -8 -41 -28 -115 -45 -165 -48 -137 -50 -149 -61
-459 -11 -328 -12 -327 62 -346 57 -16 235 -9 273 10 l30 15 3 155 c2 85 -2
230 -8 322 -10 159 -13 175 -56 303 -50 149 -69 272 -62 392 4 54 2 73 -9 77
-7 3 -13 -1 -13 -8 0 -8 6 -17 13 -19 6 -3 -14 -6 -45 -6 -66 -1 -80 18 -15
21 l42 1 -45 7 -45 7 50 3 c28 2 56 3 63 3 12 -1 18 78 14 202 -1 39 1 53 7
40 16 -40 29 227 15 329 -6 39 -10 46 -25 41 -23 -8 -24 1 -4 21 8 9 15 12 15
7 0 -4 151 -7 335 -5 l335 3 0 -54 0 -54 -57 13 c-115 27 -224 13 -304 -40
-73 -49 -72 -140 2 -221 61 -67 103 -74 234 -41 151 38 205 33 205 -19 0 -47
-108 -95 -216 -95 -39 0 -66 8 -117 35 -69 37 -96 42 -128 25 -25 -14 -26 -71
-1 -93 27 -25 81 -44 146 -52 54 -7 60 -11 85 -48 14 -22 40 -55 58 -73 28
-31 36 -34 86 -34 31 0 58 4 62 9 3 5 -7 30 -22 55 -20 32 -35 45 -51 46 -28
0 -82 27 -82 40 0 6 8 10 19 10 50 0 146 62 173 113 54 101 -28 197 -168 197
-38 0 -88 -9 -134 -25 -95 -32 -125 -32 -146 1 -16 24 -16 27 3 52 53 72 272
86 416 27 16 -7 17 2 17 109 l0 116 85 0 85 0 0 -79 c0 -58 -4 -82 -15 -91 -8
-7 -15 -24 -15 -37 0 -20 4 -24 18 -18 99 41 158 55 225 55 59 0 80 -4 100
-20 23 -18 44 -66 34 -77 -3 -2 -28 3 -56 13 -140 45 -336 -36 -372 -155 -10
-33 -9 -45 7 -77 52 -105 228 -141 365 -75 27 13 45 17 47 11 4 -11 75 -50 92
-50 6 0 10 66 10 193 0 180 -1 196 -22 237 -17 33 -35 51 -68 68 -40 21 -54
23 -125 18 -44 -3 -95 -9 -112 -12 l-33 -6 0 51 0 51 455 0 455 0 0 -122 0
-122 -67 66 c-72 71 -121 98 -175 98 -106 -1 -228 -129 -228 -238 0 -105 135
-253 243 -268 75 -11 111 2 171 59 l56 53 0 -41 c0 -39 1 -41 53 -61 l52 -22
5 297 5 296 88 3 87 3 0 -85 c0 -47 -4 -88 -10 -91 -5 -3 -10 -17 -10 -30 l0
-24 68 25 c68 26 189 42 234 31 38 -10 68 -44 68 -79 l0 -30 -27 17 c-39 26
-146 31 -216 11 -100 -29 -187 -114 -187 -183 0 -75 64 -133 170 -153 66 -12
157 2 214 33 29 16 40 19 43 9 5 -13 74 -52 94 -52 8 0 10 52 7 198 -4 179 -6
201 -26 239 -31 59 -69 77 -162 78 -41 0 -99 -4 -128 -9 l-53 -8 3 48 3 49
528 3 527 2 0 35 0 35 -657 2 -658 3 -6 85 c-4 47 -12 108 -19 135 -13 53 -66
159 -106 213 -23 30 -29 32 -85 32 -37 0 -59 -4 -59 -11 0 -6 15 -32 34 -58
80 -110 126 -236 126 -346 l0 -55 -974 0 c-610 0 -977 4 -981 10 -3 5 -13 6
-22 3 -11 -4 -14 -3 -9 5 10 17 -6 15 -30 -3 -25 -19 -429 -22 -481 -3 -27 10
-38 10 -53 0 -30 -18 -367 -16 -400 3 -33 19 -91 19 -116 0 -15 -12 -56 -15
-213 -14 -129 0 -200 5 -212 12 -15 9 -24 9 -39 -1 -13 -8 -69 -12 -176 -12
-149 0 -155 -1 -149 -19 3 -11 1 -22 -5 -26 -9 -6 -14 13 -11 40 0 6 -8 16
-19 23 -16 10 -24 10 -40 0 -11 -7 -20 -15 -20 -18 0 -3 -71 -4 -159 -2 l-158
3 -6 92 c-9 130 -42 223 -119 335 l-29 42 -64 0 c-36 0 -65 -2 -65 -4z m1079
-470 c8 -2 17 -9 19 -16 3 -8 0 -10 -8 -5 -9 6 -9 3 -1 -14 7 -11 8 -21 4 -21
-4 0 -7 -114 -5 -254 1 -139 -1 -279 -6 -310 -5 -30 -6 -57 -3 -59 3 -2 1 -2
-6 -1 -6 2 -14 -2 -17 -9 -3 -7 -3 -1 1 13 4 14 7 75 7 135 0 71 3 94 6 65 4
-25 6 29 6 120 l-1 165 -12 -85 c-10 -72 -11 -75 -7 -21 2 35 5 91 5 125 1 49
3 55 9 31 l8 -30 1 37 c0 20 -4 40 -9 43 -6 4 -8 11 -5 16 3 5 -1 6 -9 3 -19
-7 -21 -24 -3 -24 9 0 8 -3 -2 -9 -10 -7 -13 -51 -13 -210 0 -110 -3 -201 -8
-201 -14 0 -18 114 -11 280 6 126 5 169 -5 184 -21 30 5 72 36 60 8 -3 22 -7
29 -8z m-1009 -257 c38 -21 70 -64 70 -93 0 -52 -103 -182 -172 -217 -101 -52
-188 5 -188 123 0 76 47 140 137 184 60 29 104 30 153 3z m4376 5 c102 -48 97
-138 -14 -250 -83 -84 -161 -106 -217 -62 -99 78 -57 230 84 303 54 28 100 31
147 9z m-4953 -170 c42 -22 32 -51 -33 -96 -67 -48 -134 -68 -221 -68 -77 0
-116 21 -105 57 9 29 72 89 115 109 70 34 175 33 244 -2z m-613 8 c58 -22 64
-49 18 -87 -61 -52 -135 -79 -229 -83 -78 -4 -89 -2 -108 17 -28 28 -27 34 16
82 35 39 76 67 118 80 39 13 140 8 185 -9z m4952 8 c20 -6 46 -18 58 -28 l22
-18 -27 -32 c-14 -17 -56 -46 -93 -64 -57 -28 -79 -34 -153 -36 -78 -4 -89 -2
-108 17 -20 20 -20 24 -7 49 50 96 187 145 308 112z m1280 0 c20 -6 47 -19 59
-29 22 -18 22 -18 3 -43 -45 -61 -162 -108 -269 -108 -60 0 -75 3 -91 21 -18
20 -18 21 2 57 24 41 82 87 129 101 41 13 122 13 167 1z"/>
<path d="M9160 2719 c-24 -11 -59 -31 -77 -45 l-32 -24 -3 32 c-3 32 -4 33
-55 36 l-53 3 0 -233 1 -233 42 -20 c23 -11 45 -21 49 -23 5 -2 8 43 8 100 0
176 44 286 139 347 39 25 58 31 104 31 48 0 61 -4 89 -29 29 -26 33 -35 36
-99 6 -96 -14 -152 -83 -228 l-54 -62 56 -36 57 -37 28 33 c15 18 40 58 55 88
24 48 28 67 28 145 0 107 -18 150 -91 214 -73 64 -160 78 -244 40z"/>
<path d="M4120 2423 c0 -16 5 -57 10 -93 15 -97 13 -405 -4 -491 -8 -41 -25
-105 -39 -144 -74 -209 -87 -251 -103 -322 -11 -46 -18 -119 -18 -178 0 -87 3
-107 26 -156 31 -68 76 -104 147 -120 122 -26 233 20 276 113 59 127 40 299
-65 590 -57 157 -79 268 -82 419 l-3 107 -52 -5 c-39 -4 -53 -2 -53 7 0 8 9
11 28 7 15 -3 34 -2 42 4 11 6 2 9 -27 9 -24 0 -44 5 -44 10 -1 6 -3 22 -5 38
-3 24 -11 150 -13 210 -1 32 -21 27 -21 -5z"/>
<path d="M5561 2162 c-11 -11 -11 -16 -1 -22 9 -6 11 -28 6 -86 -11 -126 -33
-221 -87 -375 -108 -306 -119 -374 -79 -497 26 -79 72 -142 123 -168 39 -21
115 -21 153 -1 102 53 167 237 134 378 -7 30 -41 142 -77 249 -77 232 -89 285
-98 413 -7 88 -9 97 -25 92 -10 -3 -21 -1 -25 5 -4 6 4 10 19 10 14 0 26 4 26
8 0 14 -55 10 -69 -6z m104 -722 c22 -177 10 -315 -30 -365 -16 -19 -16 -19
-10 8 7 35 8 289 1 522 l-5 170 13 -100 c8 -55 21 -161 31 -235z m-94 45 c-11
-231 -10 -295 5 -392 7 -49 -12 -40 -30 15 -31 93 -31 170 0 419 15 129 30
230 32 223 2 -6 -1 -125 -7 -265z m42 -84 c1 -181 -1 -333 -5 -337 -5 -4 -11
-4 -15 -1 -12 13 -16 221 -8 463 11 343 26 275 28 -125z m-79 133 c-29 -209
-29 -358 -1 -426 25 -58 3 -45 -24 15 -34 76 -33 215 5 404 15 78 26 148 24
155 -8 24 -61 -276 -66 -373 -4 -90 5 -145 35 -217 4 -11 1 -12 -15 -3 -51 27
-86 181 -63 278 6 26 33 117 58 201 33 106 49 148 54 135 6 -15 8 -14 8 6 1
13 3 22 6 19 3 -3 -7 -90 -21 -194z m231 -159 c18 -95 26 -193 16 -199 -4 -3
-6 7 -4 22 3 23 1 22 -10 -8 -26 -66 -30 -83 -17 -75 20 13 -5 -27 -37 -57
-75 -71 -187 -60 -255 25 -30 38 -20 35 22 -4 77 -73 161 -75 230 -4 19 19 29
35 23 35 -6 0 -16 -7 -23 -15 -7 -8 -17 -15 -22 -15 -7 0 -7 4 0 13 20 24 42
122 42 188 0 37 -11 128 -25 201 -13 73 -27 149 -30 168 -8 56 75 -198 90
-275z"/>
</g>
</svg>
